<svg width="35" height="24" viewBox="0 0 35 24" fill="none" xmlns="http://www.w3.org/2000/svg">
<path d="M9.12004 0.842145C7.67867 2.44672 7.0629 3.40123 6.73239 4.53746C6.43067 5.57426 6.59044 6.43003 7.1925 7.02386C7.67044 7.497 8.17787 7.67323 9.05559 7.67323C9.76941 7.67323 10.3804 7.55666 11.2752 7.25152C11.7655 7.08832 27.5918 0.523288 27.6995 0.442374C27.7017 0.440443 27.7034 0.438069 27.7046 0.435409C27.7058 0.432749 27.7064 0.429864 27.7064 0.426945C27.7064 0.424027 27.7058 0.421141 27.7046 0.418481C27.7034 0.415821 27.7017 0.413447 27.6995 0.411517C27.6912 0.403288 24.2195 1.30294 19.9824 2.41243C15.7488 3.5178 12.1187 4.45997 11.9164 4.50249C11.3568 4.61906 10.4407 4.61014 10.0444 4.48534C9.79484 4.40774 9.56615 4.27456 9.37552 4.0958C9.18489 3.91705 9.03729 3.69739 8.94382 3.45334C8.85742 3.24214 8.84439 3.12626 8.84439 2.70866C8.84919 2.09357 8.96096 1.68077 9.33947 0.906602C9.48141 0.618602 9.59319 0.369002 9.58427 0.360088C9.57193 0.351859 9.36484 0.570602 9.12004 0.842145ZM2.5989 11.8033C1.1013 12.1427 0.0823289 13.4723 0.0130718 15.1839C-0.021214 16.0019 0.137872 16.6122 0.537643 17.2321C0.748843 17.5461 1.41947 18.2168 1.87136 18.561C2.65856 19.1589 2.87387 19.4476 2.83067 19.8474C2.8005 20.097 2.67159 20.2732 2.41787 20.3939C1.80279 20.6991 0.920957 20.3205 0.202329 19.4428L0.0432432 19.2495V22.8241L0.331243 22.9146C0.916157 23.0997 1.1061 23.121 2.12919 23.121C3.04599 23.121 3.14061 23.1128 3.44164 23.0223C4.34953 22.7384 5.08941 22.1192 5.50221 21.3059C5.5797 21.1551 5.67844 20.9356 5.72164 20.8108L5.80324 20.5832V21.8175L5.80736 23.0565H8.73261L8.74153 20.3727L8.75456 17.6881L9.78656 20.3596L10.8234 23.0353L12.0796 23.0483L13.3358 23.0565V11.8287H10.4106L10.4016 14.2636L10.3893 16.6945L9.70084 14.2636L9.01239 11.8293H5.80736V15.1283C5.80324 18.4197 5.80324 18.4321 5.72164 18.2085C5.51524 17.6325 5.10176 17.1073 4.45307 16.5999C4.19867 16.4017 3.84621 16.1219 3.66519 15.98C3.23936 15.644 3.0549 15.3779 3.0549 15.094C3.0549 14.913 3.07547 14.8575 3.20919 14.7155C3.38541 14.5173 3.57947 14.4399 3.88873 14.4447C4.22884 14.4529 4.74039 14.7237 5.1189 15.0981L5.42062 15.3951V12.1818L5.14496 12.07C4.56416 11.8417 4.23707 11.7772 3.52736 11.7601C3.06313 11.7512 2.77924 11.7642 2.59821 11.8033H2.5989ZM30.8956 11.8245C30.7242 11.8677 30.4142 11.9836 30.2119 12.0872C29.5879 12.3964 28.9818 13.0595 28.7061 13.7301C28.6458 13.881 28.5943 14.0099 28.5861 14.014C28.5772 14.0229 28.5038 13.8892 28.4222 13.713C27.923 12.6419 26.9383 12.0481 25.3811 11.876C25.0629 11.8376 23.9438 11.8287 21.5994 11.8376L18.2702 11.8506L17.5344 13.4161L16.7987 14.9781L16.7856 13.4031L16.7774 11.8287H13.7658V23.0565H16.7774V20.6991L16.7815 18.3464L17.6894 20.6991L18.6014 23.0565H24.3052L24.3189 21.5164C24.323 20.673 24.323 19.6623 24.3189 19.2714C24.3141 18.8799 24.3271 18.5912 24.3443 18.6255C24.3614 18.6597 24.731 19.6712 25.1658 20.8712L25.953 23.0517L27.7639 23.0737C28.7582 23.0874 29.9541 23.108 30.4224 23.1258C31.1802 23.1471 31.3043 23.1381 31.6485 23.0572C32.13 22.9431 32.5806 22.7249 32.9686 22.4178C33.3566 22.1107 33.6726 21.7223 33.8942 21.2799C34.1527 20.7635 34.2474 20.3466 34.2727 19.6581C34.329 18.1825 33.8942 17.3823 32.4576 16.3029C31.451 15.55 31.2316 15.1797 31.5319 14.7539C31.8336 14.3288 32.5351 14.3541 33.1543 14.8143C33.4122 15.0035 33.8983 15.5027 33.8983 15.5754C33.8983 15.5973 33.9203 15.6145 33.9415 15.6145C33.9676 15.6145 33.9847 15.0124 33.9847 13.8981V12.1852L33.7351 12.0735C33.2448 11.854 32.8272 11.7765 31.9845 11.7594C31.3344 11.7464 31.1582 11.7553 30.8956 11.8239V11.8245ZM21.2853 19.3873L21.273 21.7016L20.2533 19.2412C19.6896 17.8904 19.2295 16.7672 19.2295 16.7459C19.2295 16.7288 19.689 15.7564 20.2485 14.5907L21.273 12.465L21.2853 14.7711C21.2901 16.0403 21.2901 18.118 21.2853 19.3873ZM25.1274 14.4399C25.5443 14.6764 25.7637 15.1496 25.7123 15.7221C25.6519 16.4703 25.1788 16.9866 24.5548 16.9907H24.3052V14.2677L24.6021 14.2897C24.8304 14.3068 24.9552 14.3452 25.1274 14.4405V14.4399ZM29.3774 17.7786C29.5797 17.9891 29.9411 18.3162 30.1776 18.5055C30.4142 18.6947 30.6981 18.9224 30.814 19.017C31.4682 19.5676 31.296 20.3466 30.4869 20.4927C29.9582 20.5873 29.0202 20.0709 28.5902 19.4476C28.5216 19.3482 28.4483 19.2714 28.4311 19.2714C28.4092 19.2714 28.3879 19.6924 28.3831 20.204L28.3708 21.1338L27.7125 19.7699C27.347 19.017 27.0583 18.4019 27.0672 18.3978C27.5143 18.1743 27.6391 18.0837 27.923 17.8081C28.1815 17.5544 28.2892 17.4035 28.4352 17.1114L28.6204 16.737L28.8138 17.0641C28.9214 17.2492 29.1669 17.5592 29.3774 17.7786Z" fill="#FF0017"/>
</svg>
